inDegrees=yes
name=IMU_IK_results.mot
DataType=double
version=3
OpenSimVersion=4.4-2022-08-12-dcf8e2cb1
endheader
time	TH_y	TH_x	TH_z	TH_x_trans	TH_y_trans	TH_z_trans	SC_y	SC_z	SC_x	AC_y	AC_z	AC_x	GH_y	GH_z	GH_x	EL_x	PS_y
7.009999999999895	-172.3758458804439	0.656640178717727	-0.657904609456693	0	0	0	-21.7838553708739	6.302535746439055	0	46.29498984657052	4.898789148368539	-1.180293057969496	-6.79683837631796	-3.504892584416319	17.86605522387849	90.23637596506282	102.1215583471736
7.019999999999895	-172.3744988047014	0.6757649670364934	-0.6692019889912763	0	0	0	-21.7838553708739	6.302535746439055	0	46.29498984657052	4.898789148368539	-1.180293057969496	-6.814551600566815	-3.556768352775347	17.79770077449185	90.28903368112319	102.1898319497689
7.029999999999895	-172.3690270905699	0.6628064835652265	-0.6634888019436789	0	0	0	-21.7838553708739	6.302535746439055	0	46.29498984657052	4.898789148368539	-1.180293057969496	-6.856960195295202	-3.518065777856783	17.86719985646988	90.23223382300283	102.145205299539
7.039999999999894	-172.3660938101171	0.6658610291415155	-0.661818482508445	0	0	0	-21.7838553708739	6.302535746439055	0	46.29498984657052	4.898789148368539	-1.180293057969496	-6.89484744113736	-3.540293824134622	17.85730683477311	90.23992414375776	102.1529474058405
7.049999999999894	-172.3760037836766	0.6703937345434799	-0.6652821255887402	0	0	0	-21.7838553708739	6.302535746439055	0	46.29498984657052	4.898789148368539	-1.180293057969496	-6.905779100827303	-3.548059308983529	17.85173397043781	90.24640804186299	102.1670155196311
7.059999999999894	-172.3691578469334	0.6581203967718575	-0.6637611864062452	0	0	0	-21.7838553708739	6.302535746439055	0	46.29498984657052	4.898789148368539	-1.180293057969496	-6.946438885819434	-3.538234547785422	17.88202936152537	90.22797798082513	102.1500000842552
7.069999999999894	-172.3721083769665	0.6601575732981142	-0.6700362339083623	0	0	0	-21.7838553708739	6.302535746439055	0	46.29498984657052	4.898789148368539	-1.180293057969496	-6.974099622537246	-3.530022189203462	17.89948006039537	90.19870488092792	102.1288608026008
7.079999999999893	-172.3750252786169	0.6610168902920033	-0.6721800503956531	0	0	0	-21.7838553708739	6.302535746439055	0	46.29498984657052	4.898789148368539	-1.180293057969496	-6.998656613796712	-3.548827433637681	17.88339571811898	90.22272289238353	102.1426372039355
7.089999999999893	-172.3768710877579	0.6586893458851876	-0.6659871181588473	0	0	0	-21.7838553708739	6.302535746439055	0	46.29498984657052	4.898789148368539	-1.180293057969496	-7.019798018055887	-3.57199414081878	17.86659188648922	90.24467454146215	102.1489403011505
7.099999999999893	-172.3667364047879	0.6527106837316711	-0.6559331589451211	0	0	0	-21.7838553708739	6.302535746439055	0	46.29498984657052	4.898789148368539	-1.180293057969496	-7.063409138538125	-3.591621693023182	17.86602818595648	90.24952006183665	102.1377633073557
7.109999999999893	-172.3789189867536	0.6598063558458489	-0.6796643474088503	0	0	0	-21.7838553708739	6.302535746439055	0	46.29498984657052	4.898789148368539	-1.180293057969496	-7.066136167052588	-3.584478910442598	17.84964228389018	90.24479963043139	102.1452433225272
7.119999999999893	-172.3866153638229	0.6533670598395339	-0.6830113138987334	0	0	0	-21.7838553708739	6.302535746439055	0	46.29498984657052	4.898789148368539	-1.180293057969496	-7.084412253153023	-3.578272015088713	17.8613970846324	90.23757520678659	102.1309841159271
7.129999999999892	-172.3928188853002	0.6567606314225952	-0.6774271017731276	0	0	0	-21.7838553708739	6.302535746439055	0	46.29498984657052	4.898789148368539	-1.180293057969496	-7.085690632503082	-3.594191190745574	17.8408327278668	90.24518554351418	102.1313883876671
7.139999999999892	-172.4132636747683	0.6354064988520751	-0.685355658851689	0	0	0	-21.7838553708739	6.302535746439055	0	46.29498984657052	4.898789148368539	-1.180293057969496	-7.095705180690124	-3.510046755481862	17.95582011473659	90.1326662026847	102.0387425537543
7.149999999999892	-172.4285277966888	0.6521054872478177	-0.6930838134704745	0	0	0	-21.7838553708739	6.302535746439055	0	46.29498984657052	4.898789148368539	-1.180293057969496	-7.08171557679295	-3.566826073106427	17.85902919185695	90.20541677752384	102.0966716544636
7.159999999999892	-172.4349390265674	0.6310456763855841	-0.6886424586927968	0	0	0	-21.7838553708739	6.302535746439055	1.978690721283776e-36	46.29498984657052	4.898789148368539	-1.180293057969496	-7.102367555520876	-3.490707159241882	17.97007390400193	90.09274252614297	102.0034938368886
7.169999999999892	-172.4505517141349	0.64991269901938	-0.6919210310084851	0	0	0	-21.7838553708739	6.302535746439055	0	46.29498984657052	4.898789148368539	-1.180293057969496	-7.083230555657666	-3.580296240704116	17.83251426810675	90.20622601889684	102.0941268890219
7.179999999999891	-172.4563633061759	0.6361088125144849	-0.6930872444367759	0	0	0	-21.7838553708739	6.302535746439055	5.92687613263571e-35	46.29498984657052	4.898789148368539	-1.180293057969496	-7.099206388797788	-3.490490075802406	17.95244446933381	90.0721304116672	101.9910968615571
7.189999999999891	-172.4556565173013	0.651004000071812	-0.6938749986643937	0	0	0	-21.7838553708739	6.302535746439055	0	46.29498984657052	4.898789148368539	-1.180293057969496	-7.09835458780609	-3.549278830002149	17.87112521240776	90.12886501125183	102.0452025103095
7.199999999999891	-172.4832438910959	0.6529165579533407	-0.695052824130537	0	0	0	-21.7838553708739	6.302535746439055	0	46.29498984657052	4.898789148368539	-1.180293057969496	-7.073637140618696	-3.56486407080309	17.83836517827279	90.14938782833418	102.0645215741376
7.209999999999891	-172.4903017092136	0.6438390498458224	-0.702623316769675	0	0	0	-21.7838553708739	6.302535746439055	4.229634331017303e-34	46.29498984657052	4.898789148368539	-1.180293057969496	-7.085570161066162	-3.482764217852049	17.93849447086424	90.02661631934889	101.9806403461262
7.219999999999891	-172.5116168462766	0.6642524681286731	-0.6993241193493043	0	0	0	-21.7838553708739	6.302535746439055	0	46.29498984657052	4.898789148368539	-1.180293057969496	-7.052806699286923	-3.575752701625477	17.8021133053898	90.14369064434459	102.0686813792632
7.22999999999989	-172.5108481769513	0.6565110388010386	-0.7106753213636936	0	0	0	-21.7838553708739	6.302535746439055	-2.41385500674618e-33	46.29498984657052	4.898789148368539	-1.180293057969496	-7.077222216252604	-3.480304414298446	17.91772949769521	89.99760451092466	101.9728315316023
7.23999999999989	-172.5290643046247	0.6716770855523082	-0.7143848303906829	0	0	0	-21.7838553708739	6.302535746439055	0	46.29498984657052	4.898789148368539	-1.180293057969496	-7.057992314090344	-3.560518127344562	17.79780681318416	90.10431505429978	102.058014209318
7.24999999999989	-172.5295216259606	0.6751067087944743	-0.716889062041775	0	0	0	-21.7838553708739	6.302535746439055	0	46.29498984657052	4.898789148368539	-1.180293057969496	-7.070153066311851	-3.569810157418931	17.78062082865369	90.09501925099767	102.0597352618062
7.25999999999989	-172.5440932416974	0.6714087273751713	-0.7343514130574411	0	0	0	-21.7838553708739	6.302535746439055	0	46.29498984657052	4.898789148368539	-1.180293057969496	-7.079561414601937	-3.515425471465462	17.83362567840748	90.02302851893295	102.0159150949101
7.269999999999889	-172.540257531585	0.6759859869343984	-0.7275384493321477	0	0	0	-21.7838553708739	6.302535746439055	0	46.29498984657052	4.898789148368539	-1.180293057969496	-7.100021961448538	-3.579788670646749	17.75814833620501	90.10297433999473	102.0660018883296
7.279999999999889	-172.5500013871414	0.68224010650708	-0.7513681948824023	0	0	0	-21.7838553708739	6.302535746439055	0	46.29498984657052	4.898789148368539	-1.180293057969496	-7.09203334749516	-3.570703721551037	17.7329830371541	90.10834375398166	102.0848269940001
7.289999999999889	-172.5593463595048	0.6742208227525959	-0.7579007182352024	0	0	0	-21.7838553708739	6.302535746439055	0	46.29498984657052	4.898789148368539	-1.180293057969496	-7.105560071211039	-3.562696306767552	17.74105818312576	90.10592479523264	102.0764622790033
